<mxfile host="app.diagrams.net" modified="2023-12-02T00:54:34.748Z" agent="Mozilla/5.0 (Macintosh; Intel Mac OS X 10_15_7) AppleWebKit/605.1.15 (KHTML, like Gecko) Version/17.1 Safari/605.1.15" etag="952kqsYi9tF70xhrUixf" version="22.1.4" type="github" pages="2">
  <diagram name="Usuario" id="MdCg0GDHvMsd0DE7V6tG">
    <mxGraphModel dx="-23" dy="606" grid="1" gridSize="10" guides="1" tooltips="1" connect="1" arrows="1" fold="1" page="1" pageScale="1" pageWidth="827" pageHeight="1169" math="0" shadow="0">
      <root>
        <mxCell id="0" />
        <mxCell id="1" parent="0" />
        <mxCell id="mKvPmJ074jqRb_vuWh6Q-19" value="" style="ellipse;html=1;shape=startState;fillColor=#000000;strokeColor=#ff0000;" parent="1" vertex="1">
          <mxGeometry x="1080" y="70" width="30" height="30" as="geometry" />
        </mxCell>
        <mxCell id="mKvPmJ074jqRb_vuWh6Q-20" value="" style="edgeStyle=orthogonalEdgeStyle;html=1;verticalAlign=bottom;endArrow=open;endSize=8;strokeColor=#ff0000;rounded=0;entryX=0.5;entryY=0;entryDx=0;entryDy=0;" parent="1" source="mKvPmJ074jqRb_vuWh6Q-19" target="mKvPmJ074jqRb_vuWh6Q-21" edge="1">
          <mxGeometry relative="1" as="geometry">
            <mxPoint x="1095" y="160" as="targetPoint" />
          </mxGeometry>
        </mxCell>
        <mxCell id="tcHhVTiMipgtBTUNJVuq-1" style="edgeStyle=orthogonalEdgeStyle;rounded=0;orthogonalLoop=1;jettySize=auto;html=1;" parent="1" source="mKvPmJ074jqRb_vuWh6Q-21" target="mKvPmJ074jqRb_vuWh6Q-26" edge="1">
          <mxGeometry relative="1" as="geometry" />
        </mxCell>
        <mxCell id="mKvPmJ074jqRb_vuWh6Q-21" value="Front" style="rounded=1;whiteSpace=wrap;html=1;arcSize=40;fontColor=#000000;fillColor=#ffffc0;strokeColor=#ff0000;" parent="1" vertex="1">
          <mxGeometry x="1035" y="130" width="120" height="40" as="geometry" />
        </mxCell>
        <mxCell id="mKvPmJ074jqRb_vuWh6Q-73" style="edgeStyle=orthogonalEdgeStyle;rounded=0;orthogonalLoop=1;jettySize=auto;html=1;strokeColor=#EA6B66;" parent="1" source="mKvPmJ074jqRb_vuWh6Q-26" target="mKvPmJ074jqRb_vuWh6Q-71" edge="1">
          <mxGeometry relative="1" as="geometry" />
        </mxCell>
        <mxCell id="mKvPmJ074jqRb_vuWh6Q-26" value="Petshop-API" style="rounded=1;whiteSpace=wrap;html=1;arcSize=40;fontColor=#000000;fillColor=#ffffc0;strokeColor=#ff0000;" parent="1" vertex="1">
          <mxGeometry x="1035" y="215" width="120" height="40" as="geometry" />
        </mxCell>
        <mxCell id="mKvPmJ074jqRb_vuWh6Q-78" style="edgeStyle=orthogonalEdgeStyle;rounded=0;orthogonalLoop=1;jettySize=auto;html=1;entryX=0;entryY=0;entryDx=0;entryDy=0;exitX=0.5;exitY=1;exitDx=0;exitDy=0;strokeColor=#EA6B66;" parent="1" source="mKvPmJ074jqRb_vuWh6Q-29" target="mKvPmJ074jqRb_vuWh6Q-36" edge="1">
          <mxGeometry relative="1" as="geometry">
            <Array as="points">
              <mxPoint x="1019" y="464" />
            </Array>
          </mxGeometry>
        </mxCell>
        <mxCell id="mKvPmJ074jqRb_vuWh6Q-29" value="Datadabse (Postgres)" style="whiteSpace=wrap;html=1;fillColor=#ffffc0;strokeColor=#ff0000;fontColor=#000000;rounded=1;arcSize=40;" parent="1" vertex="1">
          <mxGeometry x="964" y="369.5" width="110" height="40" as="geometry" />
        </mxCell>
        <mxCell id="mKvPmJ074jqRb_vuWh6Q-36" value="" style="ellipse;html=1;shape=endState;fillColor=#000000;strokeColor=#ff0000;rotation=-60;" parent="1" vertex="1">
          <mxGeometry x="1094" y="445" width="30" height="30" as="geometry" />
        </mxCell>
        <mxCell id="mKvPmJ074jqRb_vuWh6Q-39" value="Cadastrar" style="text;html=1;align=center;verticalAlign=middle;resizable=0;points=[];autosize=1;strokeColor=none;fillColor=none;" parent="1" vertex="1">
          <mxGeometry x="1055" y="18" width="80" height="30" as="geometry" />
        </mxCell>
        <mxCell id="mKvPmJ074jqRb_vuWh6Q-44" value="" style="ellipse;html=1;shape=startState;fillColor=#000000;strokeColor=#ff0000;" parent="1" vertex="1">
          <mxGeometry x="1434" y="67" width="30" height="30" as="geometry" />
        </mxCell>
        <mxCell id="mKvPmJ074jqRb_vuWh6Q-45" value="" style="edgeStyle=orthogonalEdgeStyle;html=1;verticalAlign=bottom;endArrow=open;endSize=8;strokeColor=#ff0000;rounded=0;entryX=0.5;entryY=0;entryDx=0;entryDy=0;" parent="1" source="mKvPmJ074jqRb_vuWh6Q-44" target="mKvPmJ074jqRb_vuWh6Q-46" edge="1">
          <mxGeometry relative="1" as="geometry">
            <mxPoint x="1449" y="157" as="targetPoint" />
          </mxGeometry>
        </mxCell>
        <mxCell id="mKvPmJ074jqRb_vuWh6Q-46" value="Front" style="rounded=1;whiteSpace=wrap;html=1;arcSize=40;fontColor=#000000;fillColor=#ffffc0;strokeColor=#ff0000;" parent="1" vertex="1">
          <mxGeometry x="1389" y="127" width="120" height="40" as="geometry" />
        </mxCell>
        <mxCell id="mKvPmJ074jqRb_vuWh6Q-47" value="" style="edgeStyle=orthogonalEdgeStyle;html=1;verticalAlign=bottom;endArrow=open;endSize=8;strokeColor=#ff0000;rounded=0;entryX=0.5;entryY=0;entryDx=0;entryDy=0;" parent="1" source="mKvPmJ074jqRb_vuWh6Q-46" target="mKvPmJ074jqRb_vuWh6Q-53" edge="1">
          <mxGeometry relative="1" as="geometry">
            <mxPoint x="1449" y="207" as="targetPoint" />
          </mxGeometry>
        </mxCell>
        <mxCell id="mKvPmJ074jqRb_vuWh6Q-64" style="edgeStyle=orthogonalEdgeStyle;rounded=0;orthogonalLoop=1;jettySize=auto;html=1;entryX=0.5;entryY=0;entryDx=0;entryDy=0;strokeColor=#EA6B66;" parent="1" source="mKvPmJ074jqRb_vuWh6Q-53" target="mKvPmJ074jqRb_vuWh6Q-59" edge="1">
          <mxGeometry relative="1" as="geometry" />
        </mxCell>
        <mxCell id="mKvPmJ074jqRb_vuWh6Q-70" style="edgeStyle=orthogonalEdgeStyle;rounded=0;orthogonalLoop=1;jettySize=auto;html=1;exitX=0.75;exitY=0;exitDx=0;exitDy=0;entryX=1;entryY=0.5;entryDx=0;entryDy=0;" parent="1" source="mKvPmJ074jqRb_vuWh6Q-53" target="mKvPmJ074jqRb_vuWh6Q-46" edge="1">
          <mxGeometry relative="1" as="geometry" />
        </mxCell>
        <mxCell id="mKvPmJ074jqRb_vuWh6Q-53" value="Petshop-API" style="rounded=1;whiteSpace=wrap;html=1;arcSize=40;fontColor=#000000;fillColor=#ffffc0;strokeColor=#ff0000;" parent="1" vertex="1">
          <mxGeometry x="1389" y="215" width="120" height="40" as="geometry" />
        </mxCell>
        <mxCell id="mKvPmJ074jqRb_vuWh6Q-69" style="edgeStyle=orthogonalEdgeStyle;rounded=0;orthogonalLoop=1;jettySize=auto;html=1;" parent="1" source="mKvPmJ074jqRb_vuWh6Q-55" edge="1">
          <mxGeometry relative="1" as="geometry">
            <mxPoint x="1509" y="235" as="targetPoint" />
            <Array as="points">
              <mxPoint x="1544" y="425" />
              <mxPoint x="1544" y="235" />
            </Array>
          </mxGeometry>
        </mxCell>
        <mxCell id="mKvPmJ074jqRb_vuWh6Q-55" value="Datadabse (Postgres)" style="whiteSpace=wrap;html=1;fillColor=#ffffc0;strokeColor=#ff0000;fontColor=#000000;rounded=1;arcSize=40;" parent="1" vertex="1">
          <mxGeometry x="1394" y="405" width="110" height="40" as="geometry" />
        </mxCell>
        <mxCell id="mKvPmJ074jqRb_vuWh6Q-58" value="Buscar" style="text;html=1;align=center;verticalAlign=middle;resizable=0;points=[];autosize=1;strokeColor=none;fillColor=none;" parent="1" vertex="1">
          <mxGeometry x="1419" y="15" width="60" height="30" as="geometry" />
        </mxCell>
        <mxCell id="mKvPmJ074jqRb_vuWh6Q-65" style="edgeStyle=orthogonalEdgeStyle;rounded=0;orthogonalLoop=1;jettySize=auto;html=1;strokeColor=#EA6B66;" parent="1" source="mKvPmJ074jqRb_vuWh6Q-59" target="mKvPmJ074jqRb_vuWh6Q-55" edge="1">
          <mxGeometry relative="1" as="geometry" />
        </mxCell>
        <mxCell id="mKvPmJ074jqRb_vuWh6Q-66" value="no" style="edgeLabel;html=1;align=center;verticalAlign=middle;resizable=0;points=[];" parent="mKvPmJ074jqRb_vuWh6Q-65" vertex="1" connectable="0">
          <mxGeometry x="-0.5455" y="-1" relative="1" as="geometry">
            <mxPoint x="1" y="6" as="offset" />
          </mxGeometry>
        </mxCell>
        <mxCell id="mKvPmJ074jqRb_vuWh6Q-59" value="Cache? &lt;br&gt;(Redis)" style="rhombus;whiteSpace=wrap;html=1;fontColor=#000000;fillColor=#ffffc0;strokeColor=#ff0000;" parent="1" vertex="1">
          <mxGeometry x="1401.5" y="295" width="95" height="70" as="geometry" />
        </mxCell>
        <mxCell id="mKvPmJ074jqRb_vuWh6Q-61" value="yes" style="edgeStyle=orthogonalEdgeStyle;html=1;align=left;verticalAlign=top;endArrow=open;endSize=8;strokeColor=#ff0000;rounded=0;entryX=0;entryY=0.5;entryDx=0;entryDy=0;exitX=0;exitY=0.5;exitDx=0;exitDy=0;" parent="1" source="mKvPmJ074jqRb_vuWh6Q-59" target="mKvPmJ074jqRb_vuWh6Q-53" edge="1">
          <mxGeometry x="-0.0921" y="6" relative="1" as="geometry">
            <mxPoint x="1374.71" y="235" as="targetPoint" />
            <mxPoint x="1393.9957142857143" y="315" as="sourcePoint" />
            <Array as="points">
              <mxPoint x="1350" y="330" />
              <mxPoint x="1350" y="235" />
            </Array>
            <mxPoint as="offset" />
          </mxGeometry>
        </mxCell>
        <mxCell id="mKvPmJ074jqRb_vuWh6Q-77" style="edgeStyle=orthogonalEdgeStyle;rounded=0;orthogonalLoop=1;jettySize=auto;html=1;exitX=0.75;exitY=0.5;exitDx=0;exitDy=0;exitPerimeter=0;entryX=0.5;entryY=0;entryDx=0;entryDy=0;strokeColor=#EA6B66;" parent="1" source="mKvPmJ074jqRb_vuWh6Q-71" target="mKvPmJ074jqRb_vuWh6Q-75" edge="1">
          <mxGeometry relative="1" as="geometry">
            <mxPoint x="1179" y="345" as="targetPoint" />
          </mxGeometry>
        </mxCell>
        <mxCell id="mKvPmJ074jqRb_vuWh6Q-71" value="" style="shape=line;html=1;strokeWidth=6;strokeColor=#ff0000;" parent="1" vertex="1">
          <mxGeometry x="995" y="305" width="200" height="10" as="geometry" />
        </mxCell>
        <mxCell id="mKvPmJ074jqRb_vuWh6Q-72" value="" style="edgeStyle=orthogonalEdgeStyle;html=1;verticalAlign=bottom;endArrow=open;endSize=8;strokeColor=#ff0000;rounded=0;entryX=0.5;entryY=0;entryDx=0;entryDy=0;exitX=0.25;exitY=0.5;exitDx=0;exitDy=0;exitPerimeter=0;" parent="1" source="mKvPmJ074jqRb_vuWh6Q-71" target="mKvPmJ074jqRb_vuWh6Q-29" edge="1">
          <mxGeometry relative="1" as="geometry">
            <mxPoint x="1099" y="365" as="targetPoint" />
            <Array as="points">
              <mxPoint x="1049" y="345" />
              <mxPoint x="1019" y="345" />
            </Array>
          </mxGeometry>
        </mxCell>
        <mxCell id="mKvPmJ074jqRb_vuWh6Q-75" value="Cache (Redis)" style="rounded=1;whiteSpace=wrap;html=1;arcSize=40;fontColor=#000000;fillColor=#ffffc0;strokeColor=#ff0000;" parent="1" vertex="1">
          <mxGeometry x="1139" y="370" width="120" height="40" as="geometry" />
        </mxCell>
        <mxCell id="mKvPmJ074jqRb_vuWh6Q-76" value="" style="edgeStyle=orthogonalEdgeStyle;html=1;verticalAlign=bottom;endArrow=open;endSize=8;strokeColor=#ff0000;rounded=0;entryX=1;entryY=1;entryDx=0;entryDy=0;" parent="1" source="mKvPmJ074jqRb_vuWh6Q-75" target="mKvPmJ074jqRb_vuWh6Q-36" edge="1">
          <mxGeometry relative="1" as="geometry">
            <mxPoint x="1219" y="470" as="targetPoint" />
            <Array as="points">
              <mxPoint x="1189" y="456" />
            </Array>
          </mxGeometry>
        </mxCell>
        <mxCell id="mKvPmJ074jqRb_vuWh6Q-79" value="" style="ellipse;html=1;shape=startState;fillColor=#000000;strokeColor=#ff0000;" parent="1" vertex="1">
          <mxGeometry x="1109" y="562" width="30" height="30" as="geometry" />
        </mxCell>
        <mxCell id="mKvPmJ074jqRb_vuWh6Q-80" value="" style="edgeStyle=orthogonalEdgeStyle;html=1;verticalAlign=bottom;endArrow=open;endSize=8;strokeColor=#ff0000;rounded=0;entryX=0.5;entryY=0;entryDx=0;entryDy=0;" parent="1" source="mKvPmJ074jqRb_vuWh6Q-79" target="mKvPmJ074jqRb_vuWh6Q-81" edge="1">
          <mxGeometry relative="1" as="geometry">
            <mxPoint x="1124" y="652" as="targetPoint" />
          </mxGeometry>
        </mxCell>
        <mxCell id="mKvPmJ074jqRb_vuWh6Q-81" value="Front" style="rounded=1;whiteSpace=wrap;html=1;arcSize=40;fontColor=#000000;fillColor=#ffffc0;strokeColor=#ff0000;" parent="1" vertex="1">
          <mxGeometry x="1064" y="622" width="120" height="40" as="geometry" />
        </mxCell>
        <mxCell id="mKvPmJ074jqRb_vuWh6Q-82" value="" style="edgeStyle=orthogonalEdgeStyle;html=1;verticalAlign=bottom;endArrow=open;endSize=8;strokeColor=#ff0000;rounded=0;entryX=0.5;entryY=0;entryDx=0;entryDy=0;" parent="1" source="mKvPmJ074jqRb_vuWh6Q-81" target="mKvPmJ074jqRb_vuWh6Q-85" edge="1">
          <mxGeometry relative="1" as="geometry">
            <mxPoint x="1124" y="702" as="targetPoint" />
          </mxGeometry>
        </mxCell>
        <mxCell id="mKvPmJ074jqRb_vuWh6Q-83" style="edgeStyle=orthogonalEdgeStyle;rounded=0;orthogonalLoop=1;jettySize=auto;html=1;strokeColor=#EA6B66;entryX=0.5;entryY=0.3;entryDx=0;entryDy=0;entryPerimeter=0;" parent="1" source="mKvPmJ074jqRb_vuWh6Q-85" target="mKvPmJ074jqRb_vuWh6Q-93" edge="1">
          <mxGeometry relative="1" as="geometry">
            <mxPoint x="1385" y="780" as="targetPoint" />
          </mxGeometry>
        </mxCell>
        <mxCell id="mKvPmJ074jqRb_vuWh6Q-84" style="edgeStyle=orthogonalEdgeStyle;rounded=0;orthogonalLoop=1;jettySize=auto;html=1;exitX=0.75;exitY=0;exitDx=0;exitDy=0;entryX=1;entryY=0.5;entryDx=0;entryDy=0;" parent="1" source="mKvPmJ074jqRb_vuWh6Q-85" target="mKvPmJ074jqRb_vuWh6Q-81" edge="1">
          <mxGeometry relative="1" as="geometry" />
        </mxCell>
        <mxCell id="mKvPmJ074jqRb_vuWh6Q-85" value="Petshop-API" style="rounded=1;whiteSpace=wrap;html=1;arcSize=40;fontColor=#000000;fillColor=#ffffc0;strokeColor=#ff0000;" parent="1" vertex="1">
          <mxGeometry x="1064" y="710" width="120" height="40" as="geometry" />
        </mxCell>
        <mxCell id="mKvPmJ074jqRb_vuWh6Q-87" value="Datadabse (Postgres)" style="whiteSpace=wrap;html=1;fillColor=#ffffc0;strokeColor=#ff0000;fontColor=#000000;rounded=1;arcSize=40;" parent="1" vertex="1">
          <mxGeometry x="1175" y="880" width="110" height="40" as="geometry" />
        </mxCell>
        <mxCell id="mKvPmJ074jqRb_vuWh6Q-88" value="Atualizar" style="text;html=1;align=center;verticalAlign=middle;resizable=0;points=[];autosize=1;strokeColor=none;fillColor=none;" parent="1" vertex="1">
          <mxGeometry x="1089" y="510" width="70" height="30" as="geometry" />
        </mxCell>
        <mxCell id="mKvPmJ074jqRb_vuWh6Q-114" style="edgeStyle=orthogonalEdgeStyle;rounded=0;orthogonalLoop=1;jettySize=auto;html=1;entryX=0.5;entryY=0;entryDx=0;entryDy=0;exitX=0.25;exitY=0.5;exitDx=0;exitDy=0;exitPerimeter=0;fillColor=#f8cecc;strokeColor=#b85450;" parent="1" source="mKvPmJ074jqRb_vuWh6Q-93" target="mKvPmJ074jqRb_vuWh6Q-98" edge="1">
          <mxGeometry relative="1" as="geometry" />
        </mxCell>
        <mxCell id="mKvPmJ074jqRb_vuWh6Q-93" value="" style="shape=line;html=1;strokeWidth=6;strokeColor=#ff0000;" parent="1" vertex="1">
          <mxGeometry x="1024" y="790" width="200" height="10" as="geometry" />
        </mxCell>
        <mxCell id="mKvPmJ074jqRb_vuWh6Q-94" value="" style="edgeStyle=orthogonalEdgeStyle;html=1;verticalAlign=bottom;endArrow=open;endSize=8;strokeColor=#ff0000;rounded=0;entryX=0.5;entryY=0;entryDx=0;entryDy=0;exitX=0.75;exitY=0.5;exitDx=0;exitDy=0;exitPerimeter=0;" parent="1" source="mKvPmJ074jqRb_vuWh6Q-93" target="mKvPmJ074jqRb_vuWh6Q-87" edge="1">
          <mxGeometry relative="1" as="geometry">
            <mxPoint x="1385" y="845" as="targetPoint" />
          </mxGeometry>
        </mxCell>
        <mxCell id="mKvPmJ074jqRb_vuWh6Q-98" value="Cache (Redis)" style="rounded=1;whiteSpace=wrap;html=1;arcSize=40;fontColor=#000000;fillColor=#ffffc0;strokeColor=#ff0000;" parent="1" vertex="1">
          <mxGeometry x="980" y="880" width="120" height="40" as="geometry" />
        </mxCell>
        <mxCell id="mKvPmJ074jqRb_vuWh6Q-100" value="" style="ellipse;html=1;shape=startState;fillColor=#000000;strokeColor=#ff0000;" parent="1" vertex="1">
          <mxGeometry x="1432.5" y="562" width="30" height="30" as="geometry" />
        </mxCell>
        <mxCell id="mKvPmJ074jqRb_vuWh6Q-101" value="" style="edgeStyle=orthogonalEdgeStyle;html=1;verticalAlign=bottom;endArrow=open;endSize=8;strokeColor=#ff0000;rounded=0;entryX=0.5;entryY=0;entryDx=0;entryDy=0;" parent="1" source="mKvPmJ074jqRb_vuWh6Q-100" target="mKvPmJ074jqRb_vuWh6Q-102" edge="1">
          <mxGeometry relative="1" as="geometry">
            <mxPoint x="1447.5" y="652" as="targetPoint" />
          </mxGeometry>
        </mxCell>
        <mxCell id="mKvPmJ074jqRb_vuWh6Q-102" value="Front" style="rounded=1;whiteSpace=wrap;html=1;arcSize=40;fontColor=#000000;fillColor=#ffffc0;strokeColor=#ff0000;" parent="1" vertex="1">
          <mxGeometry x="1387.5" y="622" width="120" height="40" as="geometry" />
        </mxCell>
        <mxCell id="mKvPmJ074jqRb_vuWh6Q-103" value="" style="edgeStyle=orthogonalEdgeStyle;html=1;verticalAlign=bottom;endArrow=open;endSize=8;strokeColor=#ff0000;rounded=0;entryX=0.5;entryY=0;entryDx=0;entryDy=0;" parent="1" source="mKvPmJ074jqRb_vuWh6Q-102" target="mKvPmJ074jqRb_vuWh6Q-106" edge="1">
          <mxGeometry relative="1" as="geometry">
            <mxPoint x="1447.5" y="702" as="targetPoint" />
          </mxGeometry>
        </mxCell>
        <mxCell id="mKvPmJ074jqRb_vuWh6Q-104" style="edgeStyle=orthogonalEdgeStyle;rounded=0;orthogonalLoop=1;jettySize=auto;html=1;strokeColor=#EA6B66;entryX=0.5;entryY=0.3;entryDx=0;entryDy=0;entryPerimeter=0;" parent="1" source="mKvPmJ074jqRb_vuWh6Q-106" target="mKvPmJ074jqRb_vuWh6Q-110" edge="1">
          <mxGeometry relative="1" as="geometry">
            <mxPoint x="1708.5" y="780" as="targetPoint" />
          </mxGeometry>
        </mxCell>
        <mxCell id="mKvPmJ074jqRb_vuWh6Q-105" style="edgeStyle=orthogonalEdgeStyle;rounded=0;orthogonalLoop=1;jettySize=auto;html=1;exitX=0.75;exitY=0;exitDx=0;exitDy=0;entryX=1;entryY=0.5;entryDx=0;entryDy=0;" parent="1" source="mKvPmJ074jqRb_vuWh6Q-106" target="mKvPmJ074jqRb_vuWh6Q-102" edge="1">
          <mxGeometry relative="1" as="geometry" />
        </mxCell>
        <mxCell id="mKvPmJ074jqRb_vuWh6Q-106" value="Petshop-API" style="rounded=1;whiteSpace=wrap;html=1;arcSize=40;fontColor=#000000;fillColor=#ffffc0;strokeColor=#ff0000;" parent="1" vertex="1">
          <mxGeometry x="1387.5" y="710" width="120" height="40" as="geometry" />
        </mxCell>
        <mxCell id="mKvPmJ074jqRb_vuWh6Q-107" value="Datadabse (Postgres)" style="whiteSpace=wrap;html=1;fillColor=#ffffc0;strokeColor=#ff0000;fontColor=#000000;rounded=1;arcSize=40;" parent="1" vertex="1">
          <mxGeometry x="1498.5" y="880" width="110" height="40" as="geometry" />
        </mxCell>
        <mxCell id="mKvPmJ074jqRb_vuWh6Q-108" value="Deletar" style="text;html=1;align=center;verticalAlign=middle;resizable=0;points=[];autosize=1;strokeColor=none;fillColor=none;" parent="1" vertex="1">
          <mxGeometry x="1417.5" y="510" width="60" height="30" as="geometry" />
        </mxCell>
        <mxCell id="mKvPmJ074jqRb_vuWh6Q-113" style="edgeStyle=orthogonalEdgeStyle;rounded=0;orthogonalLoop=1;jettySize=auto;html=1;entryX=0.5;entryY=0;entryDx=0;entryDy=0;exitX=0.25;exitY=0.5;exitDx=0;exitDy=0;exitPerimeter=0;fillColor=#f8cecc;strokeColor=#b85450;" parent="1" source="mKvPmJ074jqRb_vuWh6Q-110" target="mKvPmJ074jqRb_vuWh6Q-112" edge="1">
          <mxGeometry relative="1" as="geometry" />
        </mxCell>
        <mxCell id="mKvPmJ074jqRb_vuWh6Q-110" value="" style="shape=line;html=1;strokeWidth=6;strokeColor=#ff0000;" parent="1" vertex="1">
          <mxGeometry x="1347.5" y="790" width="200" height="10" as="geometry" />
        </mxCell>
        <mxCell id="mKvPmJ074jqRb_vuWh6Q-111" value="" style="edgeStyle=orthogonalEdgeStyle;html=1;verticalAlign=bottom;endArrow=open;endSize=8;strokeColor=#ff0000;rounded=0;entryX=0.5;entryY=0;entryDx=0;entryDy=0;exitX=0.75;exitY=0.5;exitDx=0;exitDy=0;exitPerimeter=0;" parent="1" source="mKvPmJ074jqRb_vuWh6Q-110" target="mKvPmJ074jqRb_vuWh6Q-107" edge="1">
          <mxGeometry relative="1" as="geometry">
            <mxPoint x="1708.5" y="845" as="targetPoint" />
          </mxGeometry>
        </mxCell>
        <mxCell id="mKvPmJ074jqRb_vuWh6Q-112" value="Cache (Redis)" style="rounded=1;whiteSpace=wrap;html=1;arcSize=40;fontColor=#000000;fillColor=#ffffc0;strokeColor=#ff0000;" parent="1" vertex="1">
          <mxGeometry x="1315" y="880" width="120" height="40" as="geometry" />
        </mxCell>
      </root>
    </mxGraphModel>
  </diagram>
  <diagram id="oktH2O2HCwPA8V2CcfnX" name="Página-2">
    <mxGraphModel dx="804" dy="606" grid="1" gridSize="10" guides="1" tooltips="1" connect="1" arrows="1" fold="1" page="1" pageScale="1" pageWidth="827" pageHeight="1169" math="0" shadow="0">
      <root>
        <mxCell id="0" />
        <mxCell id="1" parent="0" />
        <mxCell id="u9lXlxD_U9Z32iOvLzBJ-1" value="client/front" style="shape=umlLifeline;perimeter=lifelinePerimeter;whiteSpace=wrap;html=1;container=1;dropTarget=0;collapsible=0;recursiveResize=0;outlineConnect=0;portConstraint=eastwest;newEdgeStyle={&quot;curved&quot;:0,&quot;rounded&quot;:0};" vertex="1" parent="1">
          <mxGeometry x="70" y="140" width="100" height="300" as="geometry" />
        </mxCell>
        <mxCell id="u9lXlxD_U9Z32iOvLzBJ-2" value="petshop-api" style="shape=umlLifeline;perimeter=lifelinePerimeter;whiteSpace=wrap;html=1;container=1;dropTarget=0;collapsible=0;recursiveResize=0;outlineConnect=0;portConstraint=eastwest;newEdgeStyle={&quot;curved&quot;:0,&quot;rounded&quot;:0};" vertex="1" parent="1">
          <mxGeometry x="240" y="140" width="100" height="300" as="geometry" />
        </mxCell>
        <mxCell id="u9lXlxD_U9Z32iOvLzBJ-3" value="petshot-autenticacao-api" style="shape=umlLifeline;perimeter=lifelinePerimeter;whiteSpace=wrap;html=1;container=1;dropTarget=0;collapsible=0;recursiveResize=0;outlineConnect=0;portConstraint=eastwest;newEdgeStyle={&quot;curved&quot;:0,&quot;rounded&quot;:0};" vertex="1" parent="1">
          <mxGeometry x="400" y="140" width="100" height="300" as="geometry" />
        </mxCell>
        <mxCell id="u9lXlxD_U9Z32iOvLzBJ-4" value="Postgre DB" style="shape=umlLifeline;perimeter=lifelinePerimeter;whiteSpace=wrap;html=1;container=1;dropTarget=0;collapsible=0;recursiveResize=0;outlineConnect=0;portConstraint=eastwest;newEdgeStyle={&quot;curved&quot;:0,&quot;rounded&quot;:0};" vertex="1" parent="1">
          <mxGeometry x="550" y="140" width="100" height="300" as="geometry" />
        </mxCell>
        <mxCell id="u9lXlxD_U9Z32iOvLzBJ-5" value="Redis Cache" style="shape=umlLifeline;perimeter=lifelinePerimeter;whiteSpace=wrap;html=1;container=1;dropTarget=0;collapsible=0;recursiveResize=0;outlineConnect=0;portConstraint=eastwest;newEdgeStyle={&quot;curved&quot;:0,&quot;rounded&quot;:0};" vertex="1" parent="1">
          <mxGeometry x="700" y="140" width="100" height="300" as="geometry" />
        </mxCell>
        <mxCell id="u9lXlxD_U9Z32iOvLzBJ-6" value="cliente" style="shape=umlLifeline;perimeter=lifelinePerimeter;whiteSpace=wrap;html=1;container=1;dropTarget=0;collapsible=0;recursiveResize=0;outlineConnect=0;portConstraint=eastwest;newEdgeStyle={&quot;curved&quot;:0,&quot;rounded&quot;:0};" vertex="1" parent="1">
          <mxGeometry x="80" y="585" width="100" height="300" as="geometry" />
        </mxCell>
        <mxCell id="u9lXlxD_U9Z32iOvLzBJ-7" value="http - handler" style="shape=umlLifeline;perimeter=lifelinePerimeter;whiteSpace=wrap;html=1;container=1;dropTarget=0;collapsible=0;recursiveResize=0;outlineConnect=0;portConstraint=eastwest;newEdgeStyle={&quot;curved&quot;:0,&quot;rounded&quot;:0};" vertex="1" parent="1">
          <mxGeometry x="240" y="585" width="100" height="300" as="geometry" />
        </mxCell>
        <mxCell id="u9lXlxD_U9Z32iOvLzBJ-8" value="userCase (Regra de Neg)" style="shape=umlLifeline;perimeter=lifelinePerimeter;whiteSpace=wrap;html=1;container=1;dropTarget=0;collapsible=0;recursiveResize=0;outlineConnect=0;portConstraint=eastwest;newEdgeStyle={&quot;curved&quot;:0,&quot;rounded&quot;:0};" vertex="1" parent="1">
          <mxGeometry x="400" y="585" width="100" height="300" as="geometry" />
        </mxCell>
        <mxCell id="u9lXlxD_U9Z32iOvLzBJ-9" value="port" style="shape=umlLifeline;perimeter=lifelinePerimeter;whiteSpace=wrap;html=1;container=1;dropTarget=0;collapsible=0;recursiveResize=0;outlineConnect=0;portConstraint=eastwest;newEdgeStyle={&quot;curved&quot;:0,&quot;rounded&quot;:0};" vertex="1" parent="1">
          <mxGeometry x="550" y="585" width="100" height="300" as="geometry" />
        </mxCell>
        <mxCell id="u9lXlxD_U9Z32iOvLzBJ-10" value="Adapter - input&lt;br&gt;" style="text;html=1;align=center;verticalAlign=middle;resizable=0;points=[];autosize=1;strokeColor=none;fillColor=none;" vertex="1" parent="1">
          <mxGeometry x="240" y="518" width="100" height="30" as="geometry" />
        </mxCell>
      </root>
    </mxGraphModel>
  </diagram>
</mxfile>
